<?xml version="1.0" standalone="no"?><svg xmlns="http://www.w3.org/2000/svg" viewBox="0 0 1440 320">
  <path fill="#991599" fill-opacity="1" d="M0,32L6.2,48C12.3,64,25,96,37,144C49.2,192,62,256,74,250.7C86.2,245,98,171,111,144C123.1,117,135,139,148,170.7C160,203,172,245,185,256C196.9,267,209,245,222,240C233.8,235,246,245,258,245.3C270.8,245,283,235,295,240C307.7,245,320,267,332,245.3C344.6,224,357,160,369,144C381.5,128,394,160,406,149.3C418.5,139,431,85,443,64C455.4,43,468,53,480,48C492.3,43,505,21,517,32C529.2,43,542,85,554,90.7C566.2,96,578,64,591,85.3C603.1,107,615,181,628,218.7C640,256,652,256,665,240C676.9,224,689,192,702,170.7C713.8,149,726,139,738,149.3C750.8,160,763,192,775,192C787.7,192,800,160,812,165.3C824.6,171,837,213,849,229.3C861.5,245,874,235,886,218.7C898.5,203,911,181,923,154.7C935.4,128,948,96,960,80C972.3,64,985,64,997,101.3C1009.2,139,1022,213,1034,229.3C1046.2,245,1058,203,1071,192C1083.1,181,1095,203,1108,208C1120,213,1132,203,1145,197.3C1156.9,192,1169,192,1182,181.3C1193.8,171,1206,149,1218,117.3C1230.8,85,1243,43,1255,69.3C1267.7,96,1280,192,1292,240C1304.6,288,1317,288,1329,250.7C1341.5,213,1354,139,1366,144C1378.5,149,1391,235,1403,240C1415.4,245,1428,171,1434,133.3L1440,96L1440,320L1433.8,320C1427.7,320,1415,320,1403,320C1390.8,320,1378,320,1366,320C1353.8,320,1342,320,1329,320C1316.9,320,1305,320,1292,320C1280,320,1268,320,1255,320C1243.1,320,1231,320,1218,320C1206.2,320,1194,320,1182,320C1169.2,320,1157,320,1145,320C1132.3,320,1120,320,1108,320C1095.4,320,1083,320,1071,320C1058.5,320,1046,320,1034,320C1021.5,320,1009,320,997,320C984.6,320,972,320,960,320C947.7,320,935,320,923,320C910.8,320,898,320,886,320C873.8,320,862,320,849,320C836.9,320,825,320,812,320C800,320,788,320,775,320C763.1,320,751,320,738,320C726.2,320,714,320,702,320C689.2,320,677,320,665,320C652.3,320,640,320,628,320C615.4,320,603,320,591,320C578.5,320,566,320,554,320C541.5,320,529,320,517,320C504.6,320,492,320,480,320C467.7,320,455,320,443,320C430.8,320,418,320,406,320C393.8,320,382,320,369,320C356.9,320,345,320,332,320C320,320,308,320,295,320C283.1,320,271,320,258,320C246.2,320,234,320,222,320C209.2,320,197,320,185,320C172.3,320,160,320,148,320C135.4,320,123,320,111,320C98.5,320,86,320,74,320C61.5,320,49,320,37,320C24.6,320,12,320,6,320L0,320Z"></path>
</svg>